<svg xmlns="http://www.w3.org/2000/svg" width="300" height="87">
  <title>
    hishnbamnd
  </title>
  <path fill="#CF282F" fill-rule="evenodd" d="M154.7 9.2V1.7c0-1 .8-1.7 1.7-1.7h5c.9 0 1.6.7 1.6 1.7v9.1a1.6 1.6 0 0 1-2.1 1.6l-5-1.7c-.7-.2-1.2-.8-1.2-1.5zm-13 2.3l-11.8 3.9v69.8c0 .9-.7 1.6-1.6 1.6h-4.9c-.9 0-1.6-.7-1.6-1.6V2c0-.9.7-1.6 1.6-1.6h5c.8 0 1.5.7 1.5 1.6v4.6L147.7.8a1.6 1.6 0 0 1 2.1 1.5v82.5c0 1-.7 1.7-1.6 1.7h-4.9c-.9 0-1.6-.8-1.6-1.7V11.5zm117.2 0l-11.7 3.9v69.8c0 .9-.7 1.6-1.6 1.6h-4.9c-.9 0-1.6-.7-1.6-1.6V2c0-.9.7-1.6 1.6-1.6h4.9c.9 0 1.6.7 1.6 1.6v4.6L265 .8a1.6 1.6 0 0 1 2.2 1.5v82.5c0 1-.7 1.7-1.7 1.7h-4.8c-1 0-1.7-.8-1.7-1.7V11.5zm21.3.1v64l11.6-3.8V15.4l-11.6-3.8zm-8.2-4V2.5a1.7 1.7 0 0 1 2.2-1.6L298.9 9c.6.2 1.1.8 1.1 1.5v66.1c0 .8-.5 1.4-1.1 1.6l-24.7 8.1-.6.1c-.9 0-1.6-.7-1.6-1.6V7.7zm-58 26.2l12 3.8V10.8l-12 3.8v19.2zm0 8.6v42.7c0 1-.7 1.7-1.6 1.7h-5c-.8 0-1.6-.7-1.6-1.7V13.3 9.9c0-.7.5-1.4 1.2-1.6L232 .1l.5-.1c.9 0 1.6.7 1.6 1.6V85c0 1-.8 1.7-1.7 1.7h-5c-.8 0-1.6-.7-1.6-1.7V46.3l-11.8-3.9zM173 7V1.6a1.6 1.6 0 0 1 2-1.5l24.9 8.2c.6.2 1 .9 1 1.6v28.7c0 .7-.4 1.3-1 1.6l-9.2 3 9.2 3c.6.3 1 1 1 1.6V76.5c0 .8-.4 1.4-1 1.6l-24.9 8.2-.5.1c-.8 0-1.5-.7-1.5-1.6V7zm8.1 3.8v26.9l11.7-3.9V14.6L181 10.8zm0 38v26.8l11.7-3.8V52.6L181 48.8zM99 25.6V2c0-.9.7-1.6 1.6-1.6h4.8c1 0 1.7.7 1.7 1.6v83.2c0 .9-.8 1.6-1.7 1.6h-4.8c-1 0-1.7-.7-1.7-1.6V34.4l-11.7-3.9v54.7c0 .9-.7 1.6-1.6 1.6h-4.9c-.9 0-1.6-.7-1.6-1.6V2c0-.9.7-1.6 1.6-1.6h4.9c.9 0 1.6.7 1.6 1.6v19.8L99 25.6zM74.1 44.1v37.2c0 .7-.5 1.3-1.2 1.5L60.7 87h-1l-12.4-4c-.7-.3-1.1-1-1.1-1.6V76a1.6 1.6 0 0 1 2.1-1.6l11.3 3.8h1l5.4-1.8V47.1L47.3 41c-.7-.2-1.1-.9-1.1-1.6V6.1c0-.7.4-1.3 1-1.5L59.7.5h1l12.4 4c.7.3 1.2 1 1.2 1.6v5.3A1.6 1.6 0 0 1 72 13L60.7 9.2h-1L54.2 11v23.5L73 40.7c.7.2 1.2.8 1.2 1.5v1.9zm-33-29L33 17.8V2c0-.9.7-1.6 1.7-1.6h5c1 0 1.6.7 1.6 1.6v13zm0 8.7v61.4c0 .9-.7 1.6-1.6 1.6h-5c-1 0-1.7-.7-1.7-1.6V26.5h.1l8.2-2.7zm-33 1.8l11.7-3.8V2c0-.9.7-1.6 1.6-1.6h4.9C27.3.4 28 1 28 2v83.2c0 .9-.7 1.6-1.6 1.6h-4.9c-1 0-1.6-.7-1.6-1.6V30.5L8 34.4v50.8c0 .9-.7 1.6-1.6 1.6H1.6c-.9 0-1.6-.7-1.6-1.6V2C0 1.1.7.4 1.6.4h4.9c1 0 1.6.7 1.6 1.6v23.6z"/>
</svg>
